<?xml version="1.0" ?><svg width="32" height="32" data-name="Layer 1" id="Layer_1" viewBox="0 0 128 128" xmlns="http://www.w3.org/2000/svg"><defs><style>.cls-1{fill:white;stroke:#000;stroke-miterlimit:10;stroke-width:8px;}.cls-2{fill-rule:evenodd;}</style></defs><title/><circle class="cls-1" cx="64" cy="64" r="60"/><path class="cls-2" d="M96.7,47.17c.52-2.91.51-5.91-1.3-8.17-2.53-3.18-7.9-3.29-11.58-2.73-3,.46-13.13,4.9-16.58,15.54,6.11-.46,9.31.44,8.72,7.12-.25,2.8-1.67,5.86-3.25,8.8-1.83,3.39-5.27,10-9.78,5.24-4.06-4.31-3.75-12.56-4.68-18.06a75.15,75.15,0,0,0-2.08-10.09c-.88-2.73-2.88-6-5.34-6.73-2.64-.77-5.9.43-7.81,1.55-6.1,3.56-10.74,8.63-16,12.81v.39c1,1,1.33,2.62,2.87,2.84,3.63.53,7.09-3.36,9.51.69,1.47,2.48,1.93,5.19,2.87,7.86,1.26,3.55,2.23,7.43,3.25,11.51,1.74,6.92,3.88,17.27,9.9,19.8,3.07,1.3,7.69-.44,10-1.82C71.75,90,76.69,84.6,80.91,79.11,90.57,66.11,95.9,51.38,96.7,47.17Z"/></svg>