<?xml version="1.0" ?><!DOCTYPE svg  PUBLIC '-//W3C//DTD SVG 1.0//EN'  'http://www.w3.org/TR/2001/REC-SVG-20010904/DTD/svg10.dtd'><svg height="30" style="overflow:visible;enable-background:new 0 0 32 32" viewBox="0 0 32 32" width="30" xml:space="preserve" xmlns="http://www.w3.org/2000/svg" xmlns:xlink="http://www.w3.org/1999/xlink"><g><g id="Vimeo_2_"><g id="Vimeo_1_"><circle cx="16" cy="16" id="BG" r="16" style="fill:#5FCCFF;"/><path d="M24,12.4c-0.1,1.6-1.2,3.7-3.3,6.4c-2.2,2.8-4,4.2-5.5,4.2        c-0.9,0-1.7-0.9-2.4-2.6c-0.4-1.6-0.9-3.2-1.3-4.7c-0.5-1.7-1-2.6-1.5-2.6c-0.1,0-0.5,0.3-1.3,0.8l-0.8-1        c0.8-0.7,1.6-1.4,2.3-2.1c1.1-0.9,1.8-1.4,2.4-1.4c1.2-0.1,2,0.7,2.3,2.5c0.3,2,0.5,3.2,0.6,3.7c0.4,1.6,0.8,2.4,1.2,2.4        c0.3,0,0.8-0.5,1.5-1.6c0.7-1.1,1-1.9,1.1-2.4c0.1-0.9-0.3-1.4-1.1-1.4c-0.4,0-0.8,0.1-1.2,0.3c0.8-2.6,2.3-3.8,4.5-3.7        C23.3,9.2,24.1,10.3,24,12.4" id="Vimeo" style="fill:#FFFFFF;"/></g></g></g></svg>