<svg xmlns="http://www.w3.org/2000/svg" xmlns:xlink="http://www.w3.org/1999/xlink" version="1.1" width="30" height="30" viewBox="0 0 256 256" xml:space="preserve">

<defs>
</defs>
<g style="stroke: none; stroke-width: 0; stroke-dasharray: none; stroke-linecap: butt; stroke-linejoin: miter; stroke-miterlimit: 10; fill: none; fill-rule: nonzero; opacity: 1;" transform="translate(1.4065934065934016 1.4065934065934016) scale(2.81 2.81)" >
	<path d="M 32.254 28.856 C 37.413 32.729 42.963 40.583 45 44.797 c 2.038 -4.214 7.586 -12.068 12.746 -15.941 c 3.723 -2.795 9.754 -4.957 9.754 1.924 c 0 1.374 -0.788 11.544 -1.25 13.195 c -1.606 5.74 -7.459 7.204 -12.666 6.318 C 62.685 51.842 65 56.973 60 62.103 c -9.496 9.744 -13.648 -2.445 -14.713 -5.568 c -0.195 -0.573 -0.286 -0.84 -0.288 -0.613 c -0.001 -0.228 -0.093 0.04 -0.288 0.613 C 43.648 59.658 39.496 71.847 30 62.103 c -5 -5.131 -2.685 -10.261 6.416 -11.81 c -5.207 0.886 -11.06 -0.578 -12.666 -6.318 c -0.462 -1.651 -1.25 -11.821 -1.25 -13.195 C 22.5 23.899 28.532 26.062 32.254 28.856 L 32.254 28.856 z" style="stroke: none; stroke-width: 1; stroke-dasharray: none; stroke-linecap: butt; stroke-linejoin: miter; stroke-miterlimit: 10; fill: rgb(255, 255, 255); fill-rule: nonzero; opacity: 1;" transform=" matrix(1 0 0 1 0 0) " stroke-linecap="round" />
	<path d="M 45 90 C 20.187 90 0 69.813 0 45 C 0 20.187 20.187 0 45 0 c 24.813 0 45 20.187 45 45 C 90 69.813 69.813 90 45 90 z M 45 8 C 24.598 8 8 24.598 8 45 c 0 20.402 16.598 37 37 37 c 20.402 0 37 -16.598 37 -37 C 82 24.598 65.402 8 45 8 z" style="stroke: none; stroke-width: 1; stroke-dasharray: none; stroke-linecap: butt; stroke-linejoin: miter; stroke-miterlimit: 10; fill: rgb(255, 255, 255); fill-rule: nonzero; opacity: 1;" transform=" matrix(1 0 0 1 0 0) " stroke-linecap="round" />
</g>
</svg>